<svg width="45" height="52" viewBox="0 0 45 52" fill="none" xmlns="http://www.w3.org/2000/svg">
<path d="M13.5754 30.2464L8.00328 26.9939L8.02968 18.9337L0 14.2236V39.1078L7.95928 43.7396L7.98128 36.052L13.5534 39.3045L13.5314 46.9832L21.4731 51.6062L21.5435 26.8017L13.6003 22.1773L13.5754 30.2464ZM36.767 18.9042L36.7905 27.0013L31.2184 30.2538L31.1934 22.1936L23.2532 26.8091L23.3221 51.6136L31.2667 46.9906L31.2448 39.303L36.8169 36.0505L36.8388 43.7263L44.7967 39.099V14.231L36.767 18.9042ZM22.3969 0L14.332 4.69389L28.2402 12.8443L22.5802 16.1381L8.67339 7.98773L0.524943 12.7319L22.3954 25.4638L44.2703 12.7304L22.3969 0Z" fill="white"/>
</svg>
