<svg xmlns="http://www.w3.org/2000/svg" width="35.669" height="50.991" viewBox="0 0 35.669 50.991">
  <path id="Path_653" data-name="Path 653" d="M3546.083,227.375l11.158-1.568.048-26.165.005-.01-4.413-2.288-31.213,4.227,0,.017-.014-.007-.033,17.632,4.253,2.419v0h0l.006,0,0,0,7.591-1.067-.025,13.5,4.254,2.314v.023l-4.126.5v.011l-.016-.008-.016,9.005,4.253,2.417v0h.005l8.32-1.169.017-8.96h-.007l0-.005-4.394-2.283,4.315-.607ZM3534.24,217.17l.01-5.338,10.4-1.462-.01,5.338Zm10.788-6.853,3.886-.546-.015,8.1-3.881-2.111Zm-.232,5.746,3.7,2.014-5.531.777-5.006.7-3.7-2.014Zm8.019-18.333,3.847,1.995-30.53,4.291-3.933-2.139ZM3522,219l.031-16.788,3.881,2.111-.031,16.884Zm11.832,14.85.025-13.334.379-.053,0-2.5,3.5,1.905-.02,10.548-.01,5.548Zm.1,11.852.015-8.161,3.88,2.111-.015,8.255Zm4.118-6.354-3.911-2.127,7.539-.919,3.842,2Z" transform="translate(-3521.625 -197.344)" fill="#ffde00"/>
</svg>
