<svg width="25" height="23" viewBox="0 0 25 23" fill="none" xmlns="http://www.w3.org/2000/svg">
<path d="M23.1492 0.00235495C22.8405 0.0253618 22.5374 0.0995494 22.2519 0.222024H22.248C21.9739 0.333336 20.6707 0.894821 18.6895 1.74591L11.5898 4.80847C6.49537 7.00516 1.48749 9.16836 1.48749 9.16836L1.54712 9.14472C1.54712 9.14472 1.20184 9.26095 0.841184 9.51412C0.618371 9.65933 0.42664 9.84934 0.277593 10.0726C0.100629 10.3386 -0.0417111 10.7454 0.0111857 11.1661C0.097744 11.8773 0.547847 12.3038 0.870998 12.5392C1.198 12.7776 1.50961 12.8889 1.50961 12.8889H1.5173L6.21357 14.5094C6.4242 15.2019 7.64467 19.3115 7.93801 20.2582C8.11112 20.8236 8.27943 21.1773 8.49006 21.4472C8.592 21.5851 8.71126 21.7003 8.85456 21.7929C8.92906 21.8373 9.00849 21.8724 9.09116 21.8973L9.04307 21.8855C9.05749 21.8895 9.06904 21.9013 9.07961 21.9052C9.11809 21.9161 9.14405 21.92 9.1931 21.9279C9.93654 22.1584 10.5338 21.6855 10.5338 21.6855L10.5675 21.658L13.3402 19.0722L17.9874 22.7238L18.0932 22.7701C19.0617 23.2055 20.0427 22.9632 20.5611 22.5357C21.0833 22.1052 21.2863 21.5545 21.2863 21.5545L21.3199 21.4659L24.9111 2.62262C25.0131 2.15767 25.0391 1.72227 24.9265 1.29968C24.8105 0.871993 24.5426 0.504153 24.1754 0.268321C23.8671 0.0763477 23.5096 -0.0163134 23.1492 0.00235495ZM23.0521 2.02173C23.0482 2.08379 23.0597 2.0769 23.0328 2.19609V2.20692L19.4753 20.8542C19.4599 20.8807 19.4339 20.9389 19.3627 20.997C19.2877 21.0581 19.2281 21.0965 18.9155 20.9694L13.2315 16.5061L9.79805 19.7115L10.5194 14.993L19.8061 6.12747C20.1889 5.763 20.061 5.68616 20.061 5.68616C20.0879 5.23895 19.483 5.55515 19.483 5.55515L7.77258 12.9855L7.76874 12.9658L2.15591 11.0301V11.0262L2.14148 11.0232C2.15132 11.0199 2.16096 11.0159 2.17034 11.0114L2.20111 10.9956L2.23093 10.9848C2.23093 10.9848 7.24265 8.82162 12.3371 6.62493C14.8877 5.52461 17.4575 4.41642 19.4339 3.56138C21.4103 2.71128 22.8712 2.08773 22.954 2.05424C23.0328 2.02272 22.9953 2.02272 23.0521 2.02272V2.02173Z" fill="white"/>
</svg>
