<svg width="41" height="41" viewBox="0 0 41 41" fill="none" xmlns="http://www.w3.org/2000/svg">
<path d="M39.36 0H1.64C0.732875 0 0 0.732875 0 1.64V39.36C0 40.2671 0.732875 41 1.64 41H39.36C40.2671 41 41 40.2671 41 39.36V1.64C41 0.732875 40.2671 0 39.36 0ZM37.31 23.78H21.32V17.22H37.31V23.78ZM37.31 37.31H3.69V3.69H37.31V13.94H19.68C18.7729 13.94 18.04 14.6729 18.04 15.58V25.42C18.04 26.3271 18.7729 27.06 19.68 27.06H37.31V37.31ZM23.985 20.5C23.985 21.0437 24.201 21.5651 24.5854 21.9496C24.9699 22.334 25.4913 22.55 26.035 22.55C26.5787 22.55 27.1001 22.334 27.4846 21.9496C27.869 21.5651 28.085 21.0437 28.085 20.5C28.085 19.9563 27.869 19.4349 27.4846 19.0504C27.1001 18.666 26.5787 18.45 26.035 18.45C25.4913 18.45 24.9699 18.666 24.5854 19.0504C24.201 19.4349 23.985 19.9563 23.985 20.5Z" fill="white"/>
</svg>
