<svg width="46" height="53" viewBox="0 0 46 53" fill="none" xmlns="http://www.w3.org/2000/svg">
<path d="M14.1594 30.8611L8.58726 27.6087L8.61366 19.5485L0.583984 14.8383V39.7226L8.54326 44.3544L8.56526 36.6668L14.1374 39.9192L14.1154 47.598L22.0571 52.2209L22.1275 27.4165L14.1843 22.7921L14.1594 30.8611ZM37.351 19.5189L37.3745 27.6161L31.8024 30.8685L31.7774 22.8083L23.8372 27.4239L23.9061 52.2283L31.8507 47.6054L31.8288 39.9177L37.4008 36.6653L37.4228 44.3411L45.3807 39.7137V14.8457L37.351 19.5189ZM22.9808 0.614746L14.916 5.30863L28.8242 13.459L23.1641 16.7528L9.25737 8.60247L1.10893 13.3466L22.9794 26.0785L44.8543 13.3452L22.9808 0.614746Z" fill="white"/>
</svg>
